<?xml version="1.0" encoding="UTF-8" standalone="no"?>
<!DOCTYPE svg PUBLIC "-//W3C//DTD SVG 1.1//EN"
 "http://www.w3.org/Graphics/SVG/1.1/DTD/svg11.dtd">
<!-- Generated by graphviz version 2.43.0 (0)
 -->
<!-- Title: %3 Pages: 1 -->
<svg width="2578pt" height="260pt"
 viewBox="0.00 0.00 2578.36 260.00" xmlns="http://www.w3.org/2000/svg" xmlns:xlink="http://www.w3.org/1999/xlink">
<g id="graph0" class="graph" transform="scale(1 1) rotate(0) translate(4 256)">
<title>%3</title>
<polygon fill="white" stroke="transparent" points="-4,4 -4,-256 2574.36,-256 2574.36,4 -4,4"/>
<!-- [root] aws_cloudwatch_metric_alarm.cpu&#45;utilization&#45;alarm (expand) -->
<g id="node1" class="node">
<title>[root] aws_cloudwatch_metric_alarm.cpu&#45;utilization&#45;alarm (expand)</title>
<polygon fill="none" stroke="black" points="1484.23,-108 1098.23,-108 1098.23,-72 1484.23,-72 1484.23,-108"/>
<text text-anchor="middle" x="1291.23" y="-86.3" font-family="Times,serif" font-size="14.00">aws_cloudwatch_metric_alarm.cpu&#45;utilization&#45;alarm</text>
</g>
<!-- [root] provider[&quot;registry.terraform.io/hashicorp/aws&quot;] -->
<g id="node4" class="node">
<title>[root] provider[&quot;registry.terraform.io/hashicorp/aws&quot;]</title>
<polygon fill="none" stroke="black" points="1861.23,-36 1535.97,-18 1861.23,0 2186.49,-18 1861.23,-36"/>
<text text-anchor="middle" x="1861.23" y="-14.3" font-family="Times,serif" font-size="14.00">provider[&quot;registry.terraform.io/hashicorp/aws&quot;]</text>
</g>
<!-- [root] aws_cloudwatch_metric_alarm.cpu&#45;utilization&#45;alarm (expand)&#45;&gt;[root] provider[&quot;registry.terraform.io/hashicorp/aws&quot;] -->
<g id="edge1" class="edge">
<title>[root] aws_cloudwatch_metric_alarm.cpu&#45;utilization&#45;alarm (expand)&#45;&gt;[root] provider[&quot;registry.terraform.io/hashicorp/aws&quot;]</title>
<path fill="none" stroke="black" d="M1429.94,-71.97C1530.31,-59.64 1663.89,-43.23 1755.65,-31.97"/>
<polygon fill="black" stroke="black" points="1756.29,-35.41 1765.79,-30.72 1755.44,-28.47 1756.29,-35.41"/>
</g>
<!-- [root] var.cluster_name -->
<g id="node6" class="node">
<title>[root] var.cluster_name</title>
<polygon fill="none" stroke="black" points="796.23,-36 664.23,-36 664.23,0 802.23,0 802.23,-30 796.23,-36"/>
<polyline fill="none" stroke="black" points="796.23,-36 796.23,-30 "/>
<polyline fill="none" stroke="black" points="802.23,-30 796.23,-30 "/>
<text text-anchor="middle" x="733.23" y="-14.3" font-family="Times,serif" font-size="14.00">var.cluster_name</text>
</g>
<!-- [root] aws_cloudwatch_metric_alarm.cpu&#45;utilization&#45;alarm (expand)&#45;&gt;[root] var.cluster_name -->
<g id="edge2" class="edge">
<title>[root] aws_cloudwatch_metric_alarm.cpu&#45;utilization&#45;alarm (expand)&#45;&gt;[root] var.cluster_name</title>
<path fill="none" stroke="black" d="M1098.2,-72.34C1013.19,-63.84 912,-52.17 812.42,-36.11"/>
<polygon fill="black" stroke="black" points="812.91,-32.64 802.48,-34.49 811.79,-39.55 812.91,-32.64"/>
</g>
<!-- [root] var.cpu_utilization_threshold -->
<g id="node7" class="node">
<title>[root] var.cpu_utilization_threshold</title>
<polygon fill="none" stroke="black" points="1396.23,-36 1180.23,-36 1180.23,0 1402.23,0 1402.23,-30 1396.23,-36"/>
<polyline fill="none" stroke="black" points="1396.23,-36 1396.23,-30 "/>
<polyline fill="none" stroke="black" points="1402.23,-30 1396.23,-30 "/>
<text text-anchor="middle" x="1291.23" y="-14.3" font-family="Times,serif" font-size="14.00">var.cpu_utilization_threshold</text>
</g>
<!-- [root] aws_cloudwatch_metric_alarm.cpu&#45;utilization&#45;alarm (expand)&#45;&gt;[root] var.cpu_utilization_threshold -->
<g id="edge3" class="edge">
<title>[root] aws_cloudwatch_metric_alarm.cpu&#45;utilization&#45;alarm (expand)&#45;&gt;[root] var.cpu_utilization_threshold</title>
<path fill="none" stroke="black" d="M1291.23,-71.7C1291.23,-63.98 1291.23,-54.71 1291.23,-46.11"/>
<polygon fill="black" stroke="black" points="1294.73,-46.1 1291.23,-36.1 1287.73,-46.1 1294.73,-46.1"/>
</g>
<!-- [root] var.env -->
<g id="node10" class="node">
<title>[root] var.env</title>
<polygon fill="none" stroke="black" points="882.23,-36 820.23,-36 820.23,0 888.23,0 888.23,-30 882.23,-36"/>
<polyline fill="none" stroke="black" points="882.23,-36 882.23,-30 "/>
<polyline fill="none" stroke="black" points="888.23,-30 882.23,-30 "/>
<text text-anchor="middle" x="854.23" y="-14.3" font-family="Times,serif" font-size="14.00">var.env</text>
</g>
<!-- [root] aws_cloudwatch_metric_alarm.cpu&#45;utilization&#45;alarm (expand)&#45;&gt;[root] var.env -->
<g id="edge4" class="edge">
<title>[root] aws_cloudwatch_metric_alarm.cpu&#45;utilization&#45;alarm (expand)&#45;&gt;[root] var.env</title>
<path fill="none" stroke="black" d="M1098.03,-72.49C1036.42,-64.83 968.12,-53.85 898.13,-35.89"/>
<polygon fill="black" stroke="black" points="898.81,-32.45 888.25,-33.31 897.04,-39.22 898.81,-32.45"/>
</g>
<!-- [root] var.service_name -->
<g id="node11" class="node">
<title>[root] var.service_name</title>
<polygon fill="none" stroke="black" points="1040.23,-36 906.23,-36 906.23,0 1046.23,0 1046.23,-30 1040.23,-36"/>
<polyline fill="none" stroke="black" points="1040.23,-36 1040.23,-30 "/>
<polyline fill="none" stroke="black" points="1046.23,-30 1040.23,-30 "/>
<text text-anchor="middle" x="976.23" y="-14.3" font-family="Times,serif" font-size="14.00">var.service_name</text>
</g>
<!-- [root] aws_cloudwatch_metric_alarm.cpu&#45;utilization&#45;alarm (expand)&#45;&gt;[root] var.service_name -->
<g id="edge5" class="edge">
<title>[root] aws_cloudwatch_metric_alarm.cpu&#45;utilization&#45;alarm (expand)&#45;&gt;[root] var.service_name</title>
<path fill="none" stroke="black" d="M1214.57,-71.97C1166.61,-61.31 1104.93,-47.6 1056.33,-36.8"/>
<polygon fill="black" stroke="black" points="1057.01,-33.37 1046.48,-34.61 1055.49,-40.2 1057.01,-33.37"/>
</g>
<!-- [root] var.sns_arn -->
<g id="node12" class="node">
<title>[root] var.sns_arn</title>
<polygon fill="none" stroke="black" points="1512.23,-36 1420.23,-36 1420.23,0 1518.23,0 1518.23,-30 1512.23,-36"/>
<polyline fill="none" stroke="black" points="1512.23,-36 1512.23,-30 "/>
<polyline fill="none" stroke="black" points="1518.23,-30 1512.23,-30 "/>
<text text-anchor="middle" x="1469.23" y="-14.3" font-family="Times,serif" font-size="14.00">var.sns_arn</text>
</g>
<!-- [root] aws_cloudwatch_metric_alarm.cpu&#45;utilization&#45;alarm (expand)&#45;&gt;[root] var.sns_arn -->
<g id="edge6" class="edge">
<title>[root] aws_cloudwatch_metric_alarm.cpu&#45;utilization&#45;alarm (expand)&#45;&gt;[root] var.sns_arn</title>
<path fill="none" stroke="black" d="M1334.77,-71.88C1359.43,-62.18 1390.45,-49.98 1416.48,-39.74"/>
<polygon fill="black" stroke="black" points="1417.8,-42.99 1425.83,-36.07 1415.24,-36.47 1417.8,-42.99"/>
</g>
<!-- [root] var.use_sns -->
<g id="node13" class="node">
<title>[root] var.use_sns</title>
<polygon fill="none" stroke="black" points="1156.23,-36 1064.23,-36 1064.23,0 1162.23,0 1162.23,-30 1156.23,-36"/>
<polyline fill="none" stroke="black" points="1156.23,-36 1156.23,-30 "/>
<polyline fill="none" stroke="black" points="1162.23,-30 1156.23,-30 "/>
<text text-anchor="middle" x="1113.23" y="-14.3" font-family="Times,serif" font-size="14.00">var.use_sns</text>
</g>
<!-- [root] aws_cloudwatch_metric_alarm.cpu&#45;utilization&#45;alarm (expand)&#45;&gt;[root] var.use_sns -->
<g id="edge7" class="edge">
<title>[root] aws_cloudwatch_metric_alarm.cpu&#45;utilization&#45;alarm (expand)&#45;&gt;[root] var.use_sns</title>
<path fill="none" stroke="black" d="M1247.69,-71.88C1223.03,-62.18 1192.01,-49.98 1165.97,-39.74"/>
<polygon fill="black" stroke="black" points="1167.22,-36.47 1156.63,-36.07 1164.66,-42.99 1167.22,-36.47"/>
</g>
<!-- [root] aws_cloudwatch_metric_alarm.task&#45;count&#45;alarm (expand) -->
<g id="node2" class="node">
<title>[root] aws_cloudwatch_metric_alarm.task&#45;count&#45;alarm (expand)</title>
<polygon fill="none" stroke="black" points="1056.23,-108 698.23,-108 698.23,-72 1056.23,-72 1056.23,-108"/>
<text text-anchor="middle" x="877.23" y="-86.3" font-family="Times,serif" font-size="14.00">aws_cloudwatch_metric_alarm.task&#45;count&#45;alarm</text>
</g>
<!-- [root] aws_cloudwatch_metric_alarm.task&#45;count&#45;alarm (expand)&#45;&gt;[root] provider[&quot;registry.terraform.io/hashicorp/aws&quot;] -->
<g id="edge8" class="edge">
<title>[root] aws_cloudwatch_metric_alarm.task&#45;count&#45;alarm (expand)&#45;&gt;[root] provider[&quot;registry.terraform.io/hashicorp/aws&quot;]</title>
<path fill="none" stroke="black" d="M1056.5,-74.48C1067.57,-73.63 1078.55,-72.79 1089.23,-72 1304.72,-55.96 1554.17,-39.16 1709.85,-28.88"/>
<polygon fill="black" stroke="black" points="1710.22,-32.36 1719.97,-28.21 1709.76,-25.38 1710.22,-32.36"/>
</g>
<!-- [root] aws_cloudwatch_metric_alarm.task&#45;count&#45;alarm (expand)&#45;&gt;[root] var.cluster_name -->
<g id="edge9" class="edge">
<title>[root] aws_cloudwatch_metric_alarm.task&#45;count&#45;alarm (expand)&#45;&gt;[root] var.cluster_name</title>
<path fill="none" stroke="black" d="M842,-71.88C822.65,-62.47 798.46,-50.71 777.8,-40.67"/>
<polygon fill="black" stroke="black" points="779.11,-37.41 768.59,-36.19 776.05,-43.71 779.11,-37.41"/>
</g>
<!-- [root] var.desired_task_threshold -->
<g id="node9" class="node">
<title>[root] var.desired_task_threshold</title>
<polygon fill="none" stroke="black" points="640.23,-36 438.23,-36 438.23,0 646.23,0 646.23,-30 640.23,-36"/>
<polyline fill="none" stroke="black" points="640.23,-36 640.23,-30 "/>
<polyline fill="none" stroke="black" points="646.23,-30 640.23,-30 "/>
<text text-anchor="middle" x="542.23" y="-14.3" font-family="Times,serif" font-size="14.00">var.desired_task_threshold</text>
</g>
<!-- [root] aws_cloudwatch_metric_alarm.task&#45;count&#45;alarm (expand)&#45;&gt;[root] var.desired_task_threshold -->
<g id="edge10" class="edge">
<title>[root] aws_cloudwatch_metric_alarm.task&#45;count&#45;alarm (expand)&#45;&gt;[root] var.desired_task_threshold</title>
<path fill="none" stroke="black" d="M795.71,-71.97C746.77,-61.74 684.41,-48.71 633.79,-38.13"/>
<polygon fill="black" stroke="black" points="634.33,-34.67 623.83,-36.05 632.9,-41.52 634.33,-34.67"/>
</g>
<!-- [root] aws_cloudwatch_metric_alarm.task&#45;count&#45;alarm (expand)&#45;&gt;[root] var.env -->
<g id="edge11" class="edge">
<title>[root] aws_cloudwatch_metric_alarm.task&#45;count&#45;alarm (expand)&#45;&gt;[root] var.env</title>
<path fill="none" stroke="black" d="M871.54,-71.7C868.98,-63.9 865.9,-54.51 863.04,-45.83"/>
<polygon fill="black" stroke="black" points="866.3,-44.51 859.85,-36.1 859.65,-46.7 866.3,-44.51"/>
</g>
<!-- [root] aws_cloudwatch_metric_alarm.task&#45;count&#45;alarm (expand)&#45;&gt;[root] var.service_name -->
<g id="edge12" class="edge">
<title>[root] aws_cloudwatch_metric_alarm.task&#45;count&#45;alarm (expand)&#45;&gt;[root] var.service_name</title>
<path fill="none" stroke="black" d="M901.45,-71.88C914.15,-62.89 929.89,-51.76 943.65,-42.03"/>
<polygon fill="black" stroke="black" points="945.77,-44.82 951.92,-36.19 941.73,-39.11 945.77,-44.82"/>
</g>
<!-- [root] aws_cloudwatch_metric_alarm.task&#45;count&#45;alarm (expand)&#45;&gt;[root] var.sns_arn -->
<g id="edge13" class="edge">
<title>[root] aws_cloudwatch_metric_alarm.task&#45;count&#45;alarm (expand)&#45;&gt;[root] var.sns_arn</title>
<path fill="none" stroke="black" d="M1056.28,-74.82C1178.87,-64.46 1331.56,-50.11 1409.92,-36"/>
<polygon fill="black" stroke="black" points="1410.84,-39.39 1420.02,-34.1 1409.55,-32.51 1410.84,-39.39"/>
</g>
<!-- [root] aws_cloudwatch_metric_alarm.task&#45;count&#45;alarm (expand)&#45;&gt;[root] var.use_sns -->
<g id="edge14" class="edge">
<title>[root] aws_cloudwatch_metric_alarm.task&#45;count&#45;alarm (expand)&#45;&gt;[root] var.use_sns</title>
<path fill="none" stroke="black" d="M934.66,-71.97C970.83,-61.24 1017.41,-47.42 1053.93,-36.59"/>
<polygon fill="black" stroke="black" points="1055.35,-39.82 1063.94,-33.62 1053.36,-33.11 1055.35,-39.82"/>
</g>
<!-- [root] aws_sns_topic_subscription.sns&#45;subscription (expand) -->
<g id="node3" class="node">
<title>[root] aws_sns_topic_subscription.sns&#45;subscription (expand)</title>
<polygon fill="none" stroke="black" points="2028.23,-108 1694.23,-108 1694.23,-72 2028.23,-72 2028.23,-108"/>
<text text-anchor="middle" x="1861.23" y="-86.3" font-family="Times,serif" font-size="14.00">aws_sns_topic_subscription.sns&#45;subscription</text>
</g>
<!-- [root] aws_sns_topic_subscription.sns&#45;subscription (expand)&#45;&gt;[root] provider[&quot;registry.terraform.io/hashicorp/aws&quot;] -->
<g id="edge15" class="edge">
<title>[root] aws_sns_topic_subscription.sns&#45;subscription (expand)&#45;&gt;[root] provider[&quot;registry.terraform.io/hashicorp/aws&quot;]</title>
<path fill="none" stroke="black" d="M1861.23,-71.7C1861.23,-63.98 1861.23,-54.71 1861.23,-46.11"/>
<polygon fill="black" stroke="black" points="1864.73,-46.1 1861.23,-36.1 1857.73,-46.1 1864.73,-46.1"/>
</g>
<!-- [root] var.alert_email -->
<g id="node5" class="node">
<title>[root] var.alert_email</title>
<polygon fill="none" stroke="black" points="2320.23,-36 2204.23,-36 2204.23,0 2326.23,0 2326.23,-30 2320.23,-36"/>
<polyline fill="none" stroke="black" points="2320.23,-36 2320.23,-30 "/>
<polyline fill="none" stroke="black" points="2326.23,-30 2320.23,-30 "/>
<text text-anchor="middle" x="2265.23" y="-14.3" font-family="Times,serif" font-size="14.00">var.alert_email</text>
</g>
<!-- [root] aws_sns_topic_subscription.sns&#45;subscription (expand)&#45;&gt;[root] var.alert_email -->
<g id="edge16" class="edge">
<title>[root] aws_sns_topic_subscription.sns&#45;subscription (expand)&#45;&gt;[root] var.alert_email</title>
<path fill="none" stroke="black" d="M1983.8,-71.98C2044.43,-62.97 2118.86,-51.04 2194.08,-36.15"/>
<polygon fill="black" stroke="black" points="2195.09,-39.52 2204.21,-34.13 2193.72,-32.65 2195.09,-39.52"/>
</g>
<!-- [root] var.create_sns_subscription -->
<g id="node8" class="node">
<title>[root] var.create_sns_subscription</title>
<polygon fill="none" stroke="black" points="2552.23,-36 2344.23,-36 2344.23,0 2558.23,0 2558.23,-30 2552.23,-36"/>
<polyline fill="none" stroke="black" points="2552.23,-36 2552.23,-30 "/>
<polyline fill="none" stroke="black" points="2558.23,-30 2552.23,-30 "/>
<text text-anchor="middle" x="2451.23" y="-14.3" font-family="Times,serif" font-size="14.00">var.create_sns_subscription</text>
</g>
<!-- [root] aws_sns_topic_subscription.sns&#45;subscription (expand)&#45;&gt;[root] var.create_sns_subscription -->
<g id="edge17" class="edge">
<title>[root] aws_sns_topic_subscription.sns&#45;subscription (expand)&#45;&gt;[root] var.create_sns_subscription</title>
<path fill="none" stroke="black" d="M2025.92,-71.98C2114.4,-62.5 2225.61,-50.04 2333.98,-36.14"/>
<polygon fill="black" stroke="black" points="2334.65,-39.58 2344.12,-34.83 2333.75,-32.64 2334.65,-39.58"/>
</g>
<!-- [root] aws_sns_topic_subscription.sns&#45;subscription (expand)&#45;&gt;[root] var.sns_arn -->
<g id="edge18" class="edge">
<title>[root] aws_sns_topic_subscription.sns&#45;subscription (expand)&#45;&gt;[root] var.sns_arn</title>
<path fill="none" stroke="black" d="M1728.82,-71.96C1669.96,-63.42 1599.73,-51.91 1528.53,-36.15"/>
<polygon fill="black" stroke="black" points="1529,-32.67 1518.48,-33.9 1527.47,-39.5 1529,-32.67"/>
</g>
<!-- [root] output.cloudwatch_alarm_cpu_arn (expand) -->
<g id="node14" class="node">
<title>[root] output.cloudwatch_alarm_cpu_arn (expand)</title>
<ellipse fill="none" stroke="black" cx="2329.23" cy="-162" rx="241.26" ry="18"/>
<text text-anchor="middle" x="2329.23" y="-158.3" font-family="Times,serif" font-size="14.00">[root] output.cloudwatch_alarm_cpu_arn (expand)</text>
</g>
<!-- [root] output.cloudwatch_alarm_cpu_arn (expand)&#45;&gt;[root] aws_cloudwatch_metric_alarm.cpu&#45;utilization&#45;alarm (expand) -->
<g id="edge19" class="edge">
<title>[root] output.cloudwatch_alarm_cpu_arn (expand)&#45;&gt;[root] aws_cloudwatch_metric_alarm.cpu&#45;utilization&#45;alarm (expand)</title>
<path fill="none" stroke="black" d="M2157.76,-149.32C2131.46,-147.54 2104.62,-145.72 2079.23,-144 1880.61,-130.57 1653.82,-115.32 1494.7,-104.64"/>
<polygon fill="black" stroke="black" points="1494.53,-101.12 1484.32,-103.95 1494.06,-108.11 1494.53,-101.12"/>
</g>
<!-- [root] output.cloudwatch_alarm_cpu_id (expand) -->
<g id="node15" class="node">
<title>[root] output.cloudwatch_alarm_cpu_id (expand)</title>
<ellipse fill="none" stroke="black" cx="1835.23" cy="-162" rx="234.76" ry="18"/>
<text text-anchor="middle" x="1835.23" y="-158.3" font-family="Times,serif" font-size="14.00">[root] output.cloudwatch_alarm_cpu_id (expand)</text>
</g>
<!-- [root] output.cloudwatch_alarm_cpu_id (expand)&#45;&gt;[root] aws_cloudwatch_metric_alarm.cpu&#45;utilization&#45;alarm (expand) -->
<g id="edge20" class="edge">
<title>[root] output.cloudwatch_alarm_cpu_id (expand)&#45;&gt;[root] aws_cloudwatch_metric_alarm.cpu&#45;utilization&#45;alarm (expand)</title>
<path fill="none" stroke="black" d="M1720.86,-146.28C1637.2,-135.52 1523.17,-120.85 1433.61,-109.32"/>
<polygon fill="black" stroke="black" points="1434.01,-105.84 1423.64,-108.04 1433.11,-112.79 1434.01,-105.84"/>
</g>
<!-- [root] output.cloudwatch_alarm_task_arn (expand) -->
<g id="node16" class="node">
<title>[root] output.cloudwatch_alarm_task_arn (expand)</title>
<ellipse fill="none" stroke="black" cx="737.23" cy="-162" rx="244.26" ry="18"/>
<text text-anchor="middle" x="737.23" y="-158.3" font-family="Times,serif" font-size="14.00">[root] output.cloudwatch_alarm_task_arn (expand)</text>
</g>
<!-- [root] output.cloudwatch_alarm_task_arn (expand)&#45;&gt;[root] aws_cloudwatch_metric_alarm.task&#45;count&#45;alarm (expand) -->
<g id="edge21" class="edge">
<title>[root] output.cloudwatch_alarm_task_arn (expand)&#45;&gt;[root] aws_cloudwatch_metric_alarm.task&#45;count&#45;alarm (expand)</title>
<path fill="none" stroke="black" d="M771.12,-144.05C790.07,-134.58 813.88,-122.68 834.14,-112.55"/>
<polygon fill="black" stroke="black" points="835.79,-115.63 843.17,-108.03 832.66,-109.37 835.79,-115.63"/>
</g>
<!-- [root] output.cloudwatch_alarm_task_id (expand) -->
<g id="node17" class="node">
<title>[root] output.cloudwatch_alarm_task_id (expand)</title>
<ellipse fill="none" stroke="black" cx="237.23" cy="-162" rx="237.46" ry="18"/>
<text text-anchor="middle" x="237.23" y="-158.3" font-family="Times,serif" font-size="14.00">[root] output.cloudwatch_alarm_task_id (expand)</text>
</g>
<!-- [root] output.cloudwatch_alarm_task_id (expand)&#45;&gt;[root] aws_cloudwatch_metric_alarm.task&#45;count&#45;alarm (expand) -->
<g id="edge22" class="edge">
<title>[root] output.cloudwatch_alarm_task_id (expand)&#45;&gt;[root] aws_cloudwatch_metric_alarm.task&#45;count&#45;alarm (expand)</title>
<path fill="none" stroke="black" d="M366.36,-146.88C465.85,-135.99 604.15,-120.87 711.76,-109.1"/>
<polygon fill="black" stroke="black" points="712.19,-112.57 721.75,-108.01 711.43,-105.61 712.19,-112.57"/>
</g>
<!-- [root] provider[&quot;registry.terraform.io/hashicorp/aws&quot;] (close) -->
<g id="node18" class="node">
<title>[root] provider[&quot;registry.terraform.io/hashicorp/aws&quot;] (close)</title>
<ellipse fill="none" stroke="black" cx="1291.23" cy="-162" rx="291.65" ry="18"/>
<text text-anchor="middle" x="1291.23" y="-158.3" font-family="Times,serif" font-size="14.00">[root] provider[&quot;registry.terraform.io/hashicorp/aws&quot;] (close)</text>
</g>
<!-- [root] provider[&quot;registry.terraform.io/hashicorp/aws&quot;] (close)&#45;&gt;[root] aws_cloudwatch_metric_alarm.cpu&#45;utilization&#45;alarm (expand) -->
<g id="edge23" class="edge">
<title>[root] provider[&quot;registry.terraform.io/hashicorp/aws&quot;] (close)&#45;&gt;[root] aws_cloudwatch_metric_alarm.cpu&#45;utilization&#45;alarm (expand)</title>
<path fill="none" stroke="black" d="M1291.23,-143.7C1291.23,-135.98 1291.23,-126.71 1291.23,-118.11"/>
<polygon fill="black" stroke="black" points="1294.73,-118.1 1291.23,-108.1 1287.73,-118.1 1294.73,-118.1"/>
</g>
<!-- [root] provider[&quot;registry.terraform.io/hashicorp/aws&quot;] (close)&#45;&gt;[root] aws_cloudwatch_metric_alarm.task&#45;count&#45;alarm (expand) -->
<g id="edge24" class="edge">
<title>[root] provider[&quot;registry.terraform.io/hashicorp/aws&quot;] (close)&#45;&gt;[root] aws_cloudwatch_metric_alarm.task&#45;count&#45;alarm (expand)</title>
<path fill="none" stroke="black" d="M1196.25,-144.94C1134.15,-134.44 1052.79,-120.68 987.78,-109.69"/>
<polygon fill="black" stroke="black" points="988.35,-106.24 977.91,-108.02 987.18,-113.14 988.35,-106.24"/>
</g>
<!-- [root] provider[&quot;registry.terraform.io/hashicorp/aws&quot;] (close)&#45;&gt;[root] aws_sns_topic_subscription.sns&#45;subscription (expand) -->
<g id="edge25" class="edge">
<title>[root] provider[&quot;registry.terraform.io/hashicorp/aws&quot;] (close)&#45;&gt;[root] aws_sns_topic_subscription.sns&#45;subscription (expand)</title>
<path fill="none" stroke="black" d="M1415.97,-145.68C1503.37,-134.95 1620.58,-120.55 1712.8,-109.23"/>
<polygon fill="black" stroke="black" points="1713.28,-112.7 1722.78,-108 1712.43,-105.75 1713.28,-112.7"/>
</g>
<!-- [root] root -->
<g id="node19" class="node">
<title>[root] root</title>
<ellipse fill="none" stroke="black" cx="1291.23" cy="-234" rx="58.49" ry="18"/>
<text text-anchor="middle" x="1291.23" y="-230.3" font-family="Times,serif" font-size="14.00">[root] root</text>
</g>
<!-- [root] root&#45;&gt;[root] output.cloudwatch_alarm_cpu_arn (expand) -->
<g id="edge26" class="edge">
<title>[root] root&#45;&gt;[root] output.cloudwatch_alarm_cpu_arn (expand)</title>
<path fill="none" stroke="black" d="M1348.09,-229.19C1477.75,-220.5 1805.28,-198.53 2079.23,-180 2101.35,-178.5 2124.57,-176.93 2147.57,-175.37"/>
<polygon fill="black" stroke="black" points="2148.02,-178.85 2157.76,-174.68 2147.55,-171.86 2148.02,-178.85"/>
</g>
<!-- [root] root&#45;&gt;[root] output.cloudwatch_alarm_cpu_id (expand) -->
<g id="edge27" class="edge">
<title>[root] root&#45;&gt;[root] output.cloudwatch_alarm_cpu_id (expand)</title>
<path fill="none" stroke="black" d="M1344.38,-226.16C1428.61,-215.32 1595.05,-193.91 1710.62,-179.03"/>
<polygon fill="black" stroke="black" points="1711.12,-182.5 1720.6,-177.75 1710.23,-175.56 1711.12,-182.5"/>
</g>
<!-- [root] root&#45;&gt;[root] output.cloudwatch_alarm_task_arn (expand) -->
<g id="edge28" class="edge">
<title>[root] root&#45;&gt;[root] output.cloudwatch_alarm_task_arn (expand)</title>
<path fill="none" stroke="black" d="M1238.11,-226.29C1152.78,-215.51 982.8,-194.03 864.66,-179.1"/>
<polygon fill="black" stroke="black" points="864.83,-175.59 854.47,-177.81 863.95,-182.54 864.83,-175.59"/>
</g>
<!-- [root] root&#45;&gt;[root] output.cloudwatch_alarm_task_id (expand) -->
<g id="edge29" class="edge">
<title>[root] root&#45;&gt;[root] output.cloudwatch_alarm_task_id (expand)</title>
<path fill="none" stroke="black" d="M1234.48,-229.33C1102.71,-220.81 765.81,-198.94 484.23,-180 462.19,-178.52 439.04,-176.95 416.12,-175.38"/>
<polygon fill="black" stroke="black" points="416.18,-171.87 405.97,-174.68 415.7,-178.86 416.18,-171.87"/>
</g>
<!-- [root] root&#45;&gt;[root] provider[&quot;registry.terraform.io/hashicorp/aws&quot;] (close) -->
<g id="edge30" class="edge">
<title>[root] root&#45;&gt;[root] provider[&quot;registry.terraform.io/hashicorp/aws&quot;] (close)</title>
<path fill="none" stroke="black" d="M1291.23,-215.7C1291.23,-207.98 1291.23,-198.71 1291.23,-190.11"/>
<polygon fill="black" stroke="black" points="1294.73,-190.1 1291.23,-180.1 1287.73,-190.1 1294.73,-190.1"/>
</g>
</g>
</svg>
